<mxfile host="app.diagrams.net" modified="2023-12-04T00:20:47.104Z" agent="Mozilla/5.0 (Windows NT 10.0; Win64; x64) AppleWebKit/537.36 (KHTML, like Gecko) Chrome/119.0.0.0 Safari/537.36 Edg/119.0.0.0" etag="hqVLr3-E5FUkiNPEhxQY" version="22.1.5" type="device">
  <diagram name="Page-1" id="2YBvvXClWsGukQMizWep">
    <mxGraphModel dx="1426" dy="879" grid="1" gridSize="10" guides="1" tooltips="1" connect="1" arrows="1" fold="1" page="1" pageScale="1" pageWidth="850" pageHeight="1100" math="0" shadow="0">
      <root>
        <mxCell id="0" />
        <mxCell id="1" parent="0" />
        <mxCell id="nIqvTkhjeGMcdWX5igNV-1" value="Architecture" style="text;strokeColor=none;fillColor=none;html=1;fontSize=24;fontStyle=1;verticalAlign=middle;align=center;" vertex="1" parent="1">
          <mxGeometry x="345" y="60" width="160" height="40" as="geometry" />
        </mxCell>
        <mxCell id="nIqvTkhjeGMcdWX5igNV-3" value="" style="sketch=0;outlineConnect=0;fontColor=#232F3E;gradientColor=none;fillColor=#232F3D;strokeColor=none;dashed=0;verticalLabelPosition=bottom;verticalAlign=top;align=center;html=1;fontSize=12;fontStyle=0;aspect=fixed;pointerEvents=1;shape=mxgraph.aws4.client;" vertex="1" parent="1">
          <mxGeometry x="386" y="160" width="78" height="76" as="geometry" />
        </mxCell>
        <mxCell id="nIqvTkhjeGMcdWX5igNV-4" value="" style="endArrow=classic;html=1;rounded=0;" edge="1" parent="1" source="nIqvTkhjeGMcdWX5igNV-3">
          <mxGeometry width="50" height="50" relative="1" as="geometry">
            <mxPoint x="440" y="360" as="sourcePoint" />
            <mxPoint x="425" y="320" as="targetPoint" />
          </mxGeometry>
        </mxCell>
        <mxCell id="nIqvTkhjeGMcdWX5igNV-7" value="" style="rounded=0;whiteSpace=wrap;html=1;" vertex="1" parent="1">
          <mxGeometry x="45" y="400" width="760" height="360" as="geometry" />
        </mxCell>
        <mxCell id="nIqvTkhjeGMcdWX5igNV-8" value="" style="outlineConnect=0;dashed=0;verticalLabelPosition=bottom;verticalAlign=top;align=center;html=1;shape=mxgraph.aws3.application_load_balancer;fillColor=#F58534;gradientColor=none;" vertex="1" parent="1">
          <mxGeometry x="391" y="320" width="69" height="72" as="geometry" />
        </mxCell>
        <mxCell id="nIqvTkhjeGMcdWX5igNV-9" value="" style="whiteSpace=wrap;html=1;aspect=fixed;fillColor=#f5f5f5;fontColor=#333333;strokeColor=#666666;" vertex="1" parent="1">
          <mxGeometry x="70" y="465" width="170" height="170" as="geometry" />
        </mxCell>
        <mxCell id="nIqvTkhjeGMcdWX5igNV-10" value="&lt;p style=&quot;line-height: 100%;&quot;&gt;&lt;span style=&quot;font-weight: normal;&quot;&gt;&lt;font style=&quot;font-size: 17px;&quot;&gt;Single Machine&lt;/font&gt;&lt;/span&gt;&lt;/p&gt;" style="text;strokeColor=none;fillColor=none;html=1;fontSize=24;fontStyle=1;verticalAlign=middle;align=center;" vertex="1" parent="1">
          <mxGeometry x="80" y="435" width="150" height="30" as="geometry" />
        </mxCell>
        <mxCell id="nIqvTkhjeGMcdWX5igNV-11" value="" style="rounded=1;whiteSpace=wrap;html=1;absoluteArcSize=1;arcSize=14;strokeWidth=2;" vertex="1" parent="1">
          <mxGeometry x="110" y="469" width="90" height="80" as="geometry" />
        </mxCell>
        <mxCell id="nIqvTkhjeGMcdWX5igNV-12" value="&lt;p style=&quot;line-height: 100%;&quot;&gt;&lt;font style=&quot;font-size: 11px;&quot;&gt;Master Process&lt;/font&gt;&lt;/p&gt;" style="text;strokeColor=none;fillColor=none;html=1;fontSize=24;fontStyle=1;verticalAlign=middle;align=center;" vertex="1" parent="1">
          <mxGeometry x="120" y="469" width="70" height="15" as="geometry" />
        </mxCell>
        <mxCell id="nIqvTkhjeGMcdWX5igNV-13" style="edgeStyle=orthogonalEdgeStyle;rounded=0;orthogonalLoop=1;jettySize=auto;html=1;exitX=0.5;exitY=1;exitDx=0;exitDy=0;" edge="1" parent="1" source="nIqvTkhjeGMcdWX5igNV-11" target="nIqvTkhjeGMcdWX5igNV-11">
          <mxGeometry relative="1" as="geometry" />
        </mxCell>
        <mxCell id="nIqvTkhjeGMcdWX5igNV-16" value="" style="verticalLabelPosition=bottom;html=1;verticalAlign=top;align=center;strokeColor=none;fillColor=#00BEF2;shape=mxgraph.azure.load_balancer_generic;pointerEvents=1;" vertex="1" parent="1">
          <mxGeometry x="136.25" y="494" width="37.5" height="50" as="geometry" />
        </mxCell>
        <mxCell id="nIqvTkhjeGMcdWX5igNV-18" value="&lt;font style=&quot;font-size: 17px;&quot;&gt;Client&lt;/font&gt;" style="text;strokeColor=none;fillColor=none;html=1;fontSize=24;fontStyle=1;verticalAlign=middle;align=center;" vertex="1" parent="1">
          <mxGeometry x="345" y="120" width="160" height="40" as="geometry" />
        </mxCell>
        <mxCell id="nIqvTkhjeGMcdWX5igNV-19" value="" style="endArrow=none;dashed=1;html=1;rounded=0;" edge="1" parent="1">
          <mxGeometry width="50" height="50" relative="1" as="geometry">
            <mxPoint x="5" y="120" as="sourcePoint" />
            <mxPoint x="845" y="120" as="targetPoint" />
          </mxGeometry>
        </mxCell>
        <mxCell id="nIqvTkhjeGMcdWX5igNV-20" value="" style="endArrow=none;dashed=1;html=1;rounded=0;" edge="1" parent="1">
          <mxGeometry width="50" height="50" relative="1" as="geometry">
            <mxPoint x="5" y="40" as="sourcePoint" />
            <mxPoint x="845" y="40" as="targetPoint" />
          </mxGeometry>
        </mxCell>
        <mxCell id="nIqvTkhjeGMcdWX5igNV-21" value="" style="rounded=1;whiteSpace=wrap;html=1;absoluteArcSize=1;arcSize=14;strokeWidth=2;" vertex="1" parent="1">
          <mxGeometry x="80" y="570" width="54" height="50" as="geometry" />
        </mxCell>
        <mxCell id="nIqvTkhjeGMcdWX5igNV-22" value="" style="outlineConnect=0;dashed=0;verticalLabelPosition=bottom;verticalAlign=top;align=center;html=1;shape=mxgraph.aws3.android;fillColor=#8CC64F;gradientColor=none;" vertex="1" parent="1">
          <mxGeometry x="88.63" y="574" width="36.75" height="42" as="geometry" />
        </mxCell>
        <mxCell id="nIqvTkhjeGMcdWX5igNV-24" value="" style="rounded=1;whiteSpace=wrap;html=1;absoluteArcSize=1;arcSize=14;strokeWidth=2;" vertex="1" parent="1">
          <mxGeometry x="173.75" y="570" width="54" height="50" as="geometry" />
        </mxCell>
        <mxCell id="nIqvTkhjeGMcdWX5igNV-25" value="" style="outlineConnect=0;dashed=0;verticalLabelPosition=bottom;verticalAlign=top;align=center;html=1;shape=mxgraph.aws3.android;fillColor=#8CC64F;gradientColor=none;" vertex="1" parent="1">
          <mxGeometry x="182.37" y="574" width="36.75" height="42" as="geometry" />
        </mxCell>
        <mxCell id="nIqvTkhjeGMcdWX5igNV-29" value="&lt;p style=&quot;line-height: 100%;&quot;&gt;&lt;span style=&quot;font-weight: normal;&quot;&gt;&lt;font style=&quot;font-size: 17px;&quot;&gt;Single Machine&lt;/font&gt;&lt;/span&gt;&lt;/p&gt;" style="text;strokeColor=none;fillColor=none;html=1;fontSize=24;fontStyle=1;verticalAlign=middle;align=center;" vertex="1" parent="1">
          <mxGeometry x="310" y="435" width="150" height="30" as="geometry" />
        </mxCell>
        <mxCell id="nIqvTkhjeGMcdWX5igNV-30" value="" style="whiteSpace=wrap;html=1;aspect=fixed;fillColor=#f5f5f5;fontColor=#333333;strokeColor=#666666;" vertex="1" parent="1">
          <mxGeometry x="300" y="465" width="170" height="170" as="geometry" />
        </mxCell>
        <mxCell id="nIqvTkhjeGMcdWX5igNV-31" value="" style="rounded=1;whiteSpace=wrap;html=1;absoluteArcSize=1;arcSize=14;strokeWidth=2;" vertex="1" parent="1">
          <mxGeometry x="335" y="470" width="90" height="80" as="geometry" />
        </mxCell>
        <mxCell id="nIqvTkhjeGMcdWX5igNV-32" value="&lt;p style=&quot;line-height: 100%;&quot;&gt;&lt;font style=&quot;font-size: 11px;&quot;&gt;Master Process&lt;/font&gt;&lt;/p&gt;" style="text;strokeColor=none;fillColor=none;html=1;fontSize=24;fontStyle=1;verticalAlign=middle;align=center;" vertex="1" parent="1">
          <mxGeometry x="345" y="470" width="70" height="15" as="geometry" />
        </mxCell>
        <mxCell id="nIqvTkhjeGMcdWX5igNV-33" value="" style="verticalLabelPosition=bottom;html=1;verticalAlign=top;align=center;strokeColor=none;fillColor=#00BEF2;shape=mxgraph.azure.load_balancer_generic;pointerEvents=1;" vertex="1" parent="1">
          <mxGeometry x="361.25" y="494" width="37.5" height="50" as="geometry" />
        </mxCell>
        <mxCell id="nIqvTkhjeGMcdWX5igNV-34" value="" style="rounded=1;whiteSpace=wrap;html=1;absoluteArcSize=1;arcSize=14;strokeWidth=2;" vertex="1" parent="1">
          <mxGeometry x="320" y="570" width="54" height="50" as="geometry" />
        </mxCell>
        <mxCell id="nIqvTkhjeGMcdWX5igNV-35" value="" style="rounded=1;whiteSpace=wrap;html=1;absoluteArcSize=1;arcSize=14;strokeWidth=2;" vertex="1" parent="1">
          <mxGeometry x="398" y="570" width="54" height="50" as="geometry" />
        </mxCell>
        <mxCell id="nIqvTkhjeGMcdWX5igNV-36" value="" style="outlineConnect=0;dashed=0;verticalLabelPosition=bottom;verticalAlign=top;align=center;html=1;shape=mxgraph.aws3.android;fillColor=#8CC64F;gradientColor=none;" vertex="1" parent="1">
          <mxGeometry x="328.62" y="578" width="36.75" height="42" as="geometry" />
        </mxCell>
        <mxCell id="nIqvTkhjeGMcdWX5igNV-37" value="" style="outlineConnect=0;dashed=0;verticalLabelPosition=bottom;verticalAlign=top;align=center;html=1;shape=mxgraph.aws3.android;fillColor=#8CC64F;gradientColor=none;" vertex="1" parent="1">
          <mxGeometry x="407.13" y="578" width="36.75" height="42" as="geometry" />
        </mxCell>
        <mxCell id="nIqvTkhjeGMcdWX5igNV-38" value="" style="whiteSpace=wrap;html=1;aspect=fixed;fillColor=#545454;fontColor=#333333;strokeColor=#666666;" vertex="1" parent="1">
          <mxGeometry x="600" y="465" width="170" height="170" as="geometry" />
        </mxCell>
        <mxCell id="nIqvTkhjeGMcdWX5igNV-41" value="" style="endArrow=none;dashed=1;html=1;dashPattern=1 3;strokeWidth=2;rounded=0;" edge="1" parent="1">
          <mxGeometry width="50" height="50" relative="1" as="geometry">
            <mxPoint x="505" y="550" as="sourcePoint" />
            <mxPoint x="585" y="550" as="targetPoint" />
          </mxGeometry>
        </mxCell>
        <mxCell id="nIqvTkhjeGMcdWX5igNV-42" value="&lt;p style=&quot;line-height: 100%;&quot;&gt;&lt;span style=&quot;font-size: 15px; font-weight: 400;&quot;&gt;etc ..&lt;/span&gt;&lt;/p&gt;" style="text;strokeColor=none;fillColor=none;html=1;fontSize=24;fontStyle=1;verticalAlign=middle;align=center;" vertex="1" parent="1">
          <mxGeometry x="505" y="534" width="70" height="10" as="geometry" />
        </mxCell>
        <mxCell id="nIqvTkhjeGMcdWX5igNV-43" value="&lt;p style=&quot;line-height: 100%;&quot;&gt;&lt;span style=&quot;font-weight: normal;&quot;&gt;&lt;font color=&quot;#7a7a7a&quot; style=&quot;font-size: 17px;&quot;&gt;Single Machine&lt;/font&gt;&lt;/span&gt;&lt;/p&gt;" style="text;strokeColor=none;fillColor=none;html=1;fontSize=24;fontStyle=1;verticalAlign=middle;align=center;" vertex="1" parent="1">
          <mxGeometry x="610" y="435" width="150" height="30" as="geometry" />
        </mxCell>
        <mxCell id="nIqvTkhjeGMcdWX5igNV-45" value="&lt;u style=&quot;&quot;&gt;Auto-Scaling Group&lt;/u&gt;" style="text;strokeColor=none;fillColor=none;html=1;fontSize=24;fontStyle=1;verticalAlign=middle;align=center;" vertex="1" parent="1">
          <mxGeometry x="328.62" y="690" width="181.38" height="40" as="geometry" />
        </mxCell>
        <mxCell id="nIqvTkhjeGMcdWX5igNV-47" value="" style="edgeStyle=elbowEdgeStyle;elbow=horizontal;endArrow=classic;html=1;curved=0;rounded=0;endSize=8;startSize=8;exitX=1;exitY=0.5;exitDx=0;exitDy=0;exitPerimeter=0;" edge="1" parent="1" source="nIqvTkhjeGMcdWX5igNV-8">
          <mxGeometry width="50" height="50" relative="1" as="geometry">
            <mxPoint x="480" y="360" as="sourcePoint" />
            <mxPoint x="540" y="310" as="targetPoint" />
          </mxGeometry>
        </mxCell>
        <mxCell id="nIqvTkhjeGMcdWX5igNV-48" value="&lt;font style=&quot;font-size: 15px;&quot;&gt;AWS load balancer&lt;/font&gt;" style="text;strokeColor=none;fillColor=none;html=1;fontSize=24;fontStyle=1;verticalAlign=middle;align=center;" vertex="1" parent="1">
          <mxGeometry x="550" y="280" width="160" height="50" as="geometry" />
        </mxCell>
        <mxCell id="nIqvTkhjeGMcdWX5igNV-49" value="" style="sketch=0;outlineConnect=0;fontColor=#232F3E;gradientColor=none;fillColor=#7AA116;strokeColor=none;dashed=0;verticalLabelPosition=bottom;verticalAlign=top;align=center;html=1;fontSize=12;fontStyle=0;aspect=fixed;pointerEvents=1;shape=mxgraph.aws4.bucket_with_objects;" vertex="1" parent="1">
          <mxGeometry x="388" y="900" width="75" height="78" as="geometry" />
        </mxCell>
        <mxCell id="nIqvTkhjeGMcdWX5igNV-52" value="" style="shape=link;html=1;rounded=0;exitX=0.5;exitY=1;exitDx=0;exitDy=0;" edge="1" parent="1" source="nIqvTkhjeGMcdWX5igNV-7" target="nIqvTkhjeGMcdWX5igNV-49">
          <mxGeometry width="100" relative="1" as="geometry">
            <mxPoint x="280" y="870" as="sourcePoint" />
            <mxPoint x="420" y="890" as="targetPoint" />
          </mxGeometry>
        </mxCell>
        <mxCell id="nIqvTkhjeGMcdWX5igNV-53" value="&lt;u style=&quot;font-size: 12px;&quot;&gt;Storage &lt;span style=&quot;font-weight: normal;&quot;&gt;[&lt;/span&gt;&lt;span style=&quot;font-weight: 400;&quot;&gt;for image]&lt;/span&gt;&lt;/u&gt;" style="text;strokeColor=none;fillColor=none;html=1;fontSize=24;fontStyle=1;verticalAlign=middle;align=center;" vertex="1" parent="1">
          <mxGeometry x="440" y="919" width="181.38" height="40" as="geometry" />
        </mxCell>
      </root>
    </mxGraphModel>
  </diagram>
</mxfile>
